{
  "accessors": [
    {
      "bufferView": 2,
      "componentType": 5126,
      "count": 4,
      "max": [
        1.2270909547805786,
        0.32523199915885925,
        0.2119089961051941
      ],
      "min": [
        -1.6491669416427612,
        0.21009300649166107,
        -4.4912919998168945
      ],
      "type": "VEC3"
    },
    {
      "bufferView": 1,
      "componentType": 5126,
      "count": 4,
      "max": [
        0.0,
        0.0
      ],
      "min": [
        0.0,
        0.0
      ],
      "type": "VEC2"
    },
    {
      "bufferView": 0,
      "componentType": 5125,
      "count": 4,
      "type": "SCALAR"
    },
    {
      "bufferView": 2,
      "byteOffset": 48,
      "componentType": 5126,
      "count": 65532,
      "max": [
        3.769761085510254,
        1.127331018447876,
        7.0401740074157715
      ],
      "min": [
        -2.8610150814056396,
        -0.15583699941635132,
        -5.429415225982666
      ],
      "type": "VEC3"
    },
    {
      "bufferView": 2,
      "byteOffset": 786432,
      "componentType": 5126,
      "count": 65532,
      "max": [
        0.9997592568397522,
        0.9999858140945435,
        0.999913215637207
      ],
      "min": [
        -0.999958872795105,
        -0.9999959468841553,
        -0.9982541799545288
      ],
      "type": "VEC3"
    },
    {
      "bufferView": 1,
      "byteOffset": 32,
      "componentType": 5126,
      "count": 65532,
      "max": [
        0.9959999918937683,
        1.0002000331878662
      ],
      "min": [
        -0.0005000000237487257,
        0.013199999928474426
      ],
      "type": "VEC2"
    },
    {
      "bufferView": 0,
      "byteOffset": 16,
      "componentType": 5125,
      "count": 65538,
      "type": "SCALAR"
    },
    {
      "bufferView": 2,
      "byteOffset": 1572816,
      "componentType": 5126,
      "count": 65534,
      "max": [
        4.0224928855896,
        0.6658840179443359,
        7.003472805023193
      ],
      "min": [
        -4.7571821212768555,
        -0.20098300278186798,
        -6.775330066680908
      ],
      "type": "VEC3"
    },
    {
      "bufferView": 2,
      "byteOffset": 2359224,
      "componentType": 5126,
      "count": 65534,
      "max": [
        0.9996911883354187,
        0.9999997615814209,
        0.9998102784156799
      ],
      "min": [
        -0.9996562600135803,
        -0.9999997615814209,
        -0.9998500943183899
      ],
      "type": "VEC3"
    },
    {
      "bufferView": 1,
      "byteOffset": 524288,
      "componentType": 5126,
      "count": 65534,
      "max": [
        0.9954000115394592,
        0.9994999766349792
      ],
      "min": [
        0.0010999999940395355,
        0.005100000184029341
      ],
      "type": "VEC2"
    },
    {
      "bufferView": 0,
      "byteOffset": 262168,
      "componentType": 5125,
      "count": 65550,
      "type": "SCALAR"
    },
    {
      "bufferView": 2,
      "byteOffset": 3145632,
      "componentType": 5126,
      "count": 65532,
      "max": [
        4.036835193634033,
        0.9316099882125854,
        6.981419086456299
      ],
      "min": [
        -4.801880836486816,
        -0.28252801299095154,
        -6.768816947937012
      ],
      "type": "VEC3"
    },
    {
      "bufferView": 2,
      "byteOffset": 3932016,
      "componentType": 5126,
      "count": 65532,
      "max": [
        0.9986039400100708,
        1.0,
        0.9995041489601135
      ],
      "min": [
        -0.9999274015426636,
        -1.0,
        -0.9999096393585205
      ],
      "type": "VEC3"
    },
    {
      "bufferView": 1,
      "byteOffset": 1048560,
      "componentType": 5126,
      "count": 65532,
      "max": [
        0.9939000010490417,
        0.9991000294685364
      ],
      "min": [
        0.0026000000070780516,
        0.0038999998942017555
      ],
      "type": "VEC2"
    },
    {
      "bufferView": 0,
      "byteOffset": 524368,
      "componentType": 5125,
      "count": 65592,
      "type": "SCALAR"
    },
    {
      "bufferView": 2,
      "byteOffset": 4718400,
      "componentType": 5126,
      "count": 65533,
      "max": [
        4.056408882141113,
        0.7195929884910583,
        6.263619899749756
      ],
      "min": [
        -4.087191104888916,
        -0.15577299892902374,
        -6.050012111663818
      ],
      "type": "VEC3"
    },
    {
      "bufferView": 2,
      "byteOffset": 5504796,
      "componentType": 5126,
      "count": 65533,
      "max": [
        0.9988144040107727,
        0.9999998807907104,
        0.998540461063385
      ],
      "min": [
        -0.9990096688270569,
        -0.9999750852584839,
        -0.9999179840087891
      ],
      "type": "VEC3"
    },
    {
      "bufferView": 1,
      "byteOffset": 1572816,
      "componentType": 5126,
      "count": 65533,
      "max": [
        0.9945999979972839,
        0.9997000098228455
      ],
      "min": [
        -0.0005000000237487257,
        0.013199999928474426
      ],
      "type": "VEC2"
    },
    {
      "bufferView": 0,
      "byteOffset": 786736,
      "componentType": 5125,
      "count": 65559,
      "type": "SCALAR"
    },
    {
      "bufferView": 2,
      "byteOffset": 6291192,
      "componentType": 5126,
      "count": 18530,
      "max": [
        4.053330898284912,
        0.5720120072364807,
        6.607067108154297
      ],
      "min": [
        -2.6759328842163086,
        -0.023914000019431114,
        -4.975767135620117
      ],
      "type": "VEC3"
    },
    {
      "bufferView": 2,
      "byteOffset": 6513552,
      "componentType": 5126,
      "count": 18530,
      "max": [
        0.9989936947822571,
        0.9999465942382813,
        0.99945467710495
      ],
      "min": [
        -0.9992694854736328,
        -0.9981671571731567,
        -0.9964452385902405
      ],
      "type": "VEC3"
    },
    {
      "bufferView": 1,
      "byteOffset": 2097080,
      "componentType": 5126,
      "count": 18530,
      "max": [
        0.9954000115394592,
        1.0
      ],
      "min": [
        0.0010999999940395355,
        0.04190000146627426
      ],
      "type": "VEC2"
    },
    {
      "bufferView": 0,
      "byteOffset": 1048972,
      "componentType": 5125,
      "count": 18534,
      "type": "SCALAR"
    }
  ],
  "asset": {
    "extras": {
      "author": "urheilumuseo (https://sketchfab.com/urheilumuseo)",
      "license": "CC-BY-4.0 (http://creativecommons.org/licenses/by/4.0/)",
      "source": "https://sketchfab.com/3d-models/juha-sulkakoskis-snowboard-prototype-8d9a1cf1e03441a99d08611f6d493327",
      "title": "Juha Sulkakoski's Snowboard Prototype"
    },
    "generator": "Sketchfab-12.68.0",
    "version": "2.0"
  },
  "bufferViews": [
    {
      "buffer": 0,
      "byteLength": 1123108,
      "name": "floatBufferViews",
      "target": 34963
    },
    {
      "buffer": 0,
      "byteLength": 2245320,
      "byteOffset": 1123108,
      "byteStride": 8,
      "name": "floatBufferViews",
      "target": 34962
    },
    {
      "buffer": 0,
      "byteLength": 6735912,
      "byteOffset": 3368428,
      "byteStride": 12,
      "name": "floatBufferViews",
      "target": 34962
    }
  ],
  "buffers": [
    {
      "byteLength": 10104340,
      "uri": "scene.bin"
    }
  ],
  "images": [
    {
      "uri": "textures/lumilauta_baseColor.jpeg"
    }
  ],
  "materials": [
    {
      "doubleSided": true,
      "name": "lumilauta",
      "pbrMetallicRoughness": {
        "baseColorTexture": {
          "index": 0
        },
        "metallicFactor": 0.0
      }
    }
  ],
  "meshes": [
    {
      "name": "Object_0",
      "primitives": [
        {
          "attributes": {
            "POSITION": 0,
            "TEXCOORD_0": 1
          },
          "indices": 2,
          "material": 0,
          "mode": 1
        }
      ]
    },
    {
      "name": "Object_1",
      "primitives": [
        {
          "attributes": {
            "NORMAL": 4,
            "POSITION": 3,
            "TEXCOORD_0": 5
          },
          "indices": 6,
          "material": 0,
          "mode": 4
        }
      ]
    },
    {
      "name": "Object_2",
      "primitives": [
        {
          "attributes": {
            "NORMAL": 8,
            "POSITION": 7,
            "TEXCOORD_0": 9
          },
          "indices": 10,
          "material": 0,
          "mode": 4
        }
      ]
    },
    {
      "name": "Object_3",
      "primitives": [
        {
          "attributes": {
            "NORMAL": 12,
            "POSITION": 11,
            "TEXCOORD_0": 13
          },
          "indices": 14,
          "material": 0,
          "mode": 4
        }
      ]
    },
    {
      "name": "Object_4",
      "primitives": [
        {
          "attributes": {
            "NORMAL": 16,
            "POSITION": 15,
            "TEXCOORD_0": 17
          },
          "indices": 18,
          "material": 0,
          "mode": 4
        }
      ]
    },
    {
      "name": "Object_5",
      "primitives": [
        {
          "attributes": {
            "NORMAL": 20,
            "POSITION": 19,
            "TEXCOORD_0": 21
          },
          "indices": 22,
          "material": 0,
          "mode": 4
        }
      ]
    }
  ],
  "nodes": [
    {
      "children": [
        1
      ],
      "matrix": [
        1.0,
        0.0,
        0.0,
        0.0,
        0.0,
        2.220446049250313e-16,
        -1.0,
        0.0,
        0.0,
        1.0,
        2.220446049250313e-16,
        0.0,
        0.0,
        0.0,
        0.0,
        1.0
      ],
      "name": "Sketchfab_model"
    },
    {
      "children": [
        2,
        3,
        4,
        5,
        6,
        7
      ],
      "name": "3049_juha_sulkakosken_lauta.obj.cleaner.materialmerger.gles"
    },
    {
      "mesh": 0,
      "name": "Object_2"
    },
    {
      "mesh": 1,
      "name": "Object_3"
    },
    {
      "mesh": 2,
      "name": "Object_4"
    },
    {
      "mesh": 3,
      "name": "Object_5"
    },
    {
      "mesh": 4,
      "name": "Object_6"
    },
    {
      "mesh": 5,
      "name": "Object_7"
    }
  ],
  "samplers": [
    {
      "magFilter": 9729,
      "minFilter": 9987,
      "wrapS": 10497,
      "wrapT": 10497
    }
  ],
  "scene": 0,
  "scenes": [
    {
      "name": "Sketchfab_Scene",
      "nodes": [
        0
      ]
    }
  ],
  "textures": [
    {
      "sampler": 0,
      "source": 0
    }
  ]
}
