{
  "accessors": [
    {
      "bufferView": 2,
      "componentType": 5126,
      "count": 506,
      "max": [
        4.022259712219238,
        -0.09981942176818848,
        0.05791584029793739
      ],
      "min": [
        0.3645896911621094,
        -0.3135359287261963,
        -0.06005493551492691
      ],
      "type": "VEC3"
    },
    {
      "bufferView": 2,
      "byteOffset": 6072,
      "componentType": 5126,
      "count": 506,
      "max": [
        0.9510602355003357,
        0.991849958896637,
        0.9998331665992737
      ],
      "min": [
        -0.9510579109191895,
        -0.9998331665992737,
        -0.9998331665992737
      ],
      "type": "VEC3"
    },
    {
      "bufferView": 1,
      "componentType": 5126,
      "count": 506,
      "max": [
        0.0,
        0.0
      ],
      "min": [
        0.0,
        0.0
      ],
      "type": "VEC2"
    },
    {
      "bufferView": 1,
      "byteOffset": 4048,
      "componentType": 5126,
      "count": 506,
      "max": [
        0.0,
        0.0
      ],
      "min": [
        0.0,
        0.0
      ],
      "type": "VEC2"
    },
    {
      "bufferView": 0,
      "componentType": 5125,
      "count": 2805,
      "type": "SCALAR"
    },
    {
      "bufferView": 2,
      "byteOffset": 12144,
      "componentType": 5126,
      "count": 1177,
      "max": [
        4.233669757843018,
        0.001789689064025879,
        0.029726644977927208
      ],
      "min": [
        0.2088315486907959,
        -0.26478445529937744,
        -0.032583341002464294
      ],
      "type": "VEC3"
    },
    {
      "bufferView": 2,
      "byteOffset": 26268,
      "componentType": 5126,
      "count": 1177,
      "max": [
        0.9994712471961975,
        0.9998331665992737,
        0.9992141127586365
      ],
      "min": [
        -0.9994699954986572,
        -0.9987854957580566,
        -0.999186098575592
      ],
      "type": "VEC3"
    },
    {
      "bufferView": 1,
      "byteOffset": 8096,
      "componentType": 5126,
      "count": 1177,
      "max": [
        0.9981286525726318,
        0.9951645135879517
      ],
      "min": [
        0.0019146588165313005,
        0.0021147129591554403
      ],
      "type": "VEC2"
    },
    {
      "bufferView": 1,
      "byteOffset": 17512,
      "componentType": 5126,
      "count": 1177,
      "max": [
        0.9981286525726318,
        0.9951645135879517
      ],
      "min": [
        0.0019146588165313005,
        0.0021147129591554403
      ],
      "type": "VEC2"
    },
    {
      "bufferView": 0,
      "byteOffset": 11220,
      "componentType": 5125,
      "count": 3774,
      "type": "SCALAR"
    },
    {
      "bufferView": 2,
      "byteOffset": 40392,
      "componentType": 5126,
      "count": 296,
      "max": [
        4.270773887634277,
        -0.01489245891571045,
        0.004999999888241291
      ],
      "min": [
        -0.008077621459960938,
        -0.2192997932434082,
        -0.0026212111115455627
      ],
      "type": "VEC3"
    },
    {
      "bufferView": 2,
      "byteOffset": 43944,
      "componentType": 5126,
      "count": 296,
      "max": [
        0.7799305319786072,
        0.8998026251792908,
        0.9999970197677612
      ],
      "min": [
        -0.7833021879196167,
        -0.87877357006073,
        -0.6452627778053284
      ],
      "type": "VEC3"
    },
    {
      "bufferView": 1,
      "byteOffset": 26928,
      "componentType": 5126,
      "count": 296,
      "max": [
        0.961532473564148,
        0.9885119199752808
      ],
      "min": [
        0.0018672709120437503,
        0.0018662915099412203
      ],
      "type": "VEC2"
    },
    {
      "bufferView": 1,
      "byteOffset": 29296,
      "componentType": 5126,
      "count": 296,
      "max": [
        0.961532473564148,
        0.9885119199752808
      ],
      "min": [
        0.0018672709120437503,
        0.0018662915099412203
      ],
      "type": "VEC2"
    },
    {
      "bufferView": 0,
      "byteOffset": 26316,
      "componentType": 5125,
      "count": 1044,
      "type": "SCALAR"
    },
    {
      "bufferView": 2,
      "byteOffset": 47496,
      "componentType": 5126,
      "count": 232,
      "max": [
        0.04285407066345215,
        0.0,
        0.05209827423095703
      ],
      "min": [
        -0.04285407066345215,
        -0.046164751052856445,
        -0.05209827423095703
      ],
      "type": "VEC3"
    },
    {
      "bufferView": 2,
      "byteOffset": 50280,
      "componentType": 5126,
      "count": 232,
      "max": [
        1.0,
        0.0,
        1.0
      ],
      "min": [
        -1.0,
        -1.0,
        -1.0
      ],
      "type": "VEC3"
    },
    {
      "bufferView": 1,
      "byteOffset": 31664,
      "componentType": 5126,
      "count": 232,
      "max": [
        0.849979817867279,
        0.9455867409706116
      ],
      "min": [
        0.001876625930890441,
        0.001892204862087965
      ],
      "type": "VEC2"
    },
    {
      "bufferView": 1,
      "byteOffset": 33520,
      "componentType": 5126,
      "count": 232,
      "max": [
        0.849979817867279,
        0.9455867409706116
      ],
      "min": [
        0.001876625930890441,
        0.001892204862087965
      ],
      "type": "VEC2"
    },
    {
      "bufferView": 0,
      "byteOffset": 30492,
      "componentType": 5125,
      "count": 468,
      "type": "SCALAR"
    },
    {
      "bufferView": 2,
      "byteOffset": 53064,
      "componentType": 5126,
      "count": 552,
      "max": [
        3.8181045055389404,
        -0.10792875289916992,
        0.057599782943725586
      ],
      "min": [
        0.29346680641174316,
        -0.6195751428604126,
        -0.05844109132885933
      ],
      "type": "VEC3"
    },
    {
      "bufferView": 2,
      "byteOffset": 59688,
      "componentType": 5126,
      "count": 552,
      "max": [
        0.9510583877563477,
        0.991849958896637,
        0.9998711347579956
      ],
      "min": [
        -0.9510602355003357,
        -0.9998710751533508,
        -0.9998711347579956
      ],
      "type": "VEC3"
    },
    {
      "bufferView": 1,
      "byteOffset": 35376,
      "componentType": 5126,
      "count": 552,
      "max": [
        0.0,
        0.0
      ],
      "min": [
        0.0,
        0.0
      ],
      "type": "VEC2"
    },
    {
      "bufferView": 1,
      "byteOffset": 39792,
      "componentType": 5126,
      "count": 552,
      "max": [
        0.0,
        0.0
      ],
      "min": [
        0.0,
        0.0
      ],
      "type": "VEC2"
    },
    {
      "bufferView": 0,
      "byteOffset": 32364,
      "componentType": 5125,
      "count": 3060,
      "type": "SCALAR"
    },
    {
      "bufferView": 2,
      "byteOffset": 66312,
      "componentType": 5126,
      "count": 1094,
      "max": [
        4.038112163543701,
        0.001789689064025879,
        0.029699116945266724
      ],
      "min": [
        0.2088315486907959,
        -0.5690526962280273,
        -0.03115571290254593
      ],
      "type": "VEC3"
    },
    {
      "bufferView": 2,
      "byteOffset": 79440,
      "componentType": 5126,
      "count": 1094,
      "max": [
        0.9994697570800781,
        0.9998710751533508,
        0.9992140531539917
      ],
      "min": [
        -0.9994701743125916,
        -0.9987847805023193,
        -0.9991859793663025
      ],
      "type": "VEC3"
    },
    {
      "bufferView": 1,
      "byteOffset": 44208,
      "componentType": 5126,
      "count": 1094,
      "max": [
        0.9864535927772522,
        0.9983116388320923
      ],
      "min": [
        0.0017384386155754328,
        0.0019241658737882972
      ],
      "type": "VEC2"
    },
    {
      "bufferView": 1,
      "byteOffset": 52960,
      "componentType": 5126,
      "count": 1094,
      "max": [
        0.9864535927772522,
        0.9983116388320923
      ],
      "min": [
        0.0017384386155754328,
        0.0019241658737882972
      ],
      "type": "VEC2"
    },
    {
      "bufferView": 0,
      "byteOffset": 44604,
      "componentType": 5125,
      "count": 3288,
      "type": "SCALAR"
    },
    {
      "bufferView": 2,
      "byteOffset": 92568,
      "componentType": 5126,
      "count": 209,
      "max": [
        4.075835227966309,
        -0.016784071922302246,
        0.004999999888241291
      ],
      "min": [
        -0.008077621459960938,
        -0.52538001537323,
        -0.002500011818483472
      ],
      "type": "VEC3"
    },
    {
      "bufferView": 2,
      "byteOffset": 95076,
      "componentType": 5126,
      "count": 209,
      "max": [
        0.7863961458206177,
        0.8829485774040222,
        0.9999963641166687
      ],
      "min": [
        -0.7893860936164856,
        -0.9851241111755371,
        -0.6886988878250122
      ],
      "type": "VEC3"
    },
    {
      "bufferView": 1,
      "byteOffset": 61712,
      "componentType": 5126,
      "count": 209,
      "max": [
        0.9542183876037598,
        0.9645518064498901
      ],
      "min": [
        0.0016877049347385764,
        0.0016872570849955082
      ],
      "type": "VEC2"
    },
    {
      "bufferView": 1,
      "byteOffset": 63384,
      "componentType": 5126,
      "count": 209,
      "max": [
        0.9542183876037598,
        0.9645518064498901
      ],
      "min": [
        0.0016877049347385764,
        0.0016872570849955082
      ],
      "type": "VEC2"
    },
    {
      "bufferView": 0,
      "byteOffset": 57756,
      "componentType": 5125,
      "count": 624,
      "type": "SCALAR"
    },
    {
      "bufferView": 2,
      "byteOffset": 97584,
      "componentType": 5126,
      "count": 232,
      "max": [
        0.04285407066345215,
        0.0,
        0.05209827423095703
      ],
      "min": [
        -0.04285407066345215,
        -0.046164751052856445,
        -0.05209827423095703
      ],
      "type": "VEC3"
    },
    {
      "bufferView": 2,
      "byteOffset": 100368,
      "componentType": 5126,
      "count": 232,
      "max": [
        1.0,
        0.0,
        1.0
      ],
      "min": [
        -1.0,
        -1.0,
        -1.0
      ],
      "type": "VEC3"
    },
    {
      "bufferView": 1,
      "byteOffset": 65056,
      "componentType": 5126,
      "count": 232,
      "max": [
        0.9481620788574219,
        0.9475517272949219
      ],
      "min": [
        0.0016902571078389883,
        0.0017108892789110541
      ],
      "type": "VEC2"
    },
    {
      "bufferView": 1,
      "byteOffset": 66912,
      "componentType": 5126,
      "count": 232,
      "max": [
        0.9481620788574219,
        0.9475517272949219
      ],
      "min": [
        0.0016902571078389883,
        0.0017108892789110541
      ],
      "type": "VEC2"
    },
    {
      "bufferView": 0,
      "byteOffset": 60252,
      "componentType": 5125,
      "count": 468,
      "type": "SCALAR"
    },
    {
      "bufferView": 2,
      "byteOffset": 103152,
      "componentType": 5126,
      "count": 598,
      "max": [
        3.8615989685058594,
        -0.15849614143371582,
        0.06276632845401764
      ],
      "min": [
        0.30182945728302,
        -0.6289700269699097,
        -0.05844108760356903
      ],
      "type": "VEC3"
    },
    {
      "bufferView": 2,
      "byteOffset": 110328,
      "componentType": 5126,
      "count": 598,
      "max": [
        0.9510619640350342,
        0.9918187260627747,
        0.9999784231185913
      ],
      "min": [
        -0.951058030128479,
        -0.9999783635139465,
        -0.9999784231185913
      ],
      "type": "VEC3"
    },
    {
      "bufferView": 1,
      "byteOffset": 68768,
      "componentType": 5126,
      "count": 598,
      "max": [
        0.0,
        0.0
      ],
      "min": [
        0.0,
        0.0
      ],
      "type": "VEC2"
    },
    {
      "bufferView": 1,
      "byteOffset": 73552,
      "componentType": 5126,
      "count": 598,
      "max": [
        0.0,
        0.0
      ],
      "min": [
        0.0,
        0.0
      ],
      "type": "VEC2"
    },
    {
      "bufferView": 0,
      "byteOffset": 62124,
      "componentType": 5125,
      "count": 3315,
      "type": "SCALAR"
    },
    {
      "bufferView": 2,
      "byteOffset": 117504,
      "componentType": 5126,
      "count": 1231,
      "max": [
        4.035227298736572,
        0.001789689064025879,
        0.035541120916604996
      ],
      "min": [
        0.2088315486907959,
        -0.5784475803375244,
        -0.031106632202863693
      ],
      "type": "VEC3"
    },
    {
      "bufferView": 2,
      "byteOffset": 132276,
      "componentType": 5126,
      "count": 1231,
      "max": [
        0.9994701743125916,
        0.9999784231185913,
        0.9992144107818604
      ],
      "min": [
        -0.999470591545105,
        -0.9987860918045044,
        -0.9991859793663025
      ],
      "type": "VEC3"
    },
    {
      "bufferView": 1,
      "byteOffset": 78336,
      "componentType": 5126,
      "count": 1231,
      "max": [
        0.9929611682891846,
        0.995788037776947
      ],
      "min": [
        0.0015871524810791016,
        0.28593796491622925
      ],
      "type": "VEC2"
    },
    {
      "bufferView": 1,
      "byteOffset": 88184,
      "componentType": 5126,
      "count": 1231,
      "max": [
        0.9929611682891846,
        0.995788037776947
      ],
      "min": [
        0.0015871524810791016,
        0.28593796491622925
      ],
      "type": "VEC2"
    },
    {
      "bufferView": 0,
      "byteOffset": 75384,
      "componentType": 5125,
      "count": 3762,
      "type": "SCALAR"
    },
    {
      "bufferView": 2,
      "byteOffset": 147048,
      "componentType": 5126,
      "count": 266,
      "max": [
        4.07583475112915,
        -0.014375805854797363,
        0.0050000036135315895
      ],
      "min": [
        -0.008077621459960938,
        -0.5363643169403076,
        -0.002500008326023817
      ],
      "type": "VEC3"
    },
    {
      "bufferView": 2,
      "byteOffset": 150240,
      "componentType": 5126,
      "count": 266,
      "max": [
        0.7867149710655212,
        0.8692461252212524,
        0.9999969601631165
      ],
      "min": [
        -0.7898855805397034,
        -0.8777030110359192,
        -0.6583069562911987
      ],
      "type": "VEC3"
    },
    {
      "bufferView": 1,
      "byteOffset": 98032,
      "componentType": 5126,
      "count": 266,
      "max": [
        0.9942701458930969,
        0.9984179735183716
      ],
      "min": [
        0.0015751179307699203,
        0.0015768648590892553
      ],
      "type": "VEC2"
    },
    {
      "bufferView": 1,
      "byteOffset": 100160,
      "componentType": 5126,
      "count": 266,
      "max": [
        0.9942701458930969,
        0.9984179735183716
      ],
      "min": [
        0.0015751179307699203,
        0.0015768648590892553
      ],
      "type": "VEC2"
    },
    {
      "bufferView": 0,
      "byteOffset": 90432,
      "componentType": 5125,
      "count": 864,
      "type": "SCALAR"
    },
    {
      "bufferView": 2,
      "byteOffset": 153432,
      "componentType": 5126,
      "count": 232,
      "max": [
        0.04285407066345215,
        0.0,
        0.05209828540682793
      ],
      "min": [
        -0.04285407066345215,
        -0.046164751052856445,
        -0.05209828540682793
      ],
      "type": "VEC3"
    },
    {
      "bufferView": 2,
      "byteOffset": 156216,
      "componentType": 5126,
      "count": 232,
      "max": [
        1.0,
        0.0,
        1.0
      ],
      "min": [
        -1.0,
        -1.0,
        -1.0
      ],
      "type": "VEC3"
    },
    {
      "bufferView": 1,
      "byteOffset": 102288,
      "componentType": 5126,
      "count": 232,
      "max": [
        0.8244092464447021,
        0.8904218673706055
      ],
      "min": [
        0.0015744955744594336,
        0.0015957695432007313
      ],
      "type": "VEC2"
    },
    {
      "bufferView": 1,
      "byteOffset": 104144,
      "componentType": 5126,
      "count": 232,
      "max": [
        0.8244092464447021,
        0.8904218673706055
      ],
      "min": [
        0.0015744955744594336,
        0.0015957695432007313
      ],
      "type": "VEC2"
    },
    {
      "bufferView": 0,
      "byteOffset": 93888,
      "componentType": 5125,
      "count": 468,
      "type": "SCALAR"
    }
  ],
  "asset": {
    "extras": {
      "author": "cartti (https://sketchfab.com/cartti)",
      "license": "CC-BY-4.0 (http://creativecommons.org/licenses/by/4.0/)",
      "source": "https://sketchfab.com/3d-models/fairy-lights-82a67d28bc554f29b70c3300dc06bc3d",
      "title": "Fairy Lights"
    },
    "generator": "Sketchfab-13.31.0",
    "version": "2.0"
  },
  "bufferViews": [
    {
      "buffer": 0,
      "byteLength": 95760,
      "name": "floatBufferViews",
      "target": 34963
    },
    {
      "buffer": 0,
      "byteLength": 106000,
      "byteOffset": 95760,
      "byteStride": 8,
      "name": "floatBufferViews",
      "target": 34962
    },
    {
      "buffer": 0,
      "byteLength": 159000,
      "byteOffset": 201760,
      "byteStride": 12,
      "name": "floatBufferViews",
      "target": 34962
    }
  ],
  "buffers": [
    {
      "byteLength": 360760,
      "uri": "scene.bin"
    }
  ],
  "materials": [
    {
      "doubleSided": true,
      "emissiveFactor": [
        1.0,
        1.0,
        1.0
      ],
      "name": "Emissive"
    },
    {
      "doubleSided": true,
      "name": "Metal",
      "pbrMetallicRoughness": {
        "baseColorFactor": [
          0.8,
          0.8,
          0.8,
          1.0
        ],
        "roughnessFactor": 0.1
      }
    },
    {
      "doubleSided": true,
      "name": "Cable",
      "pbrMetallicRoughness": {
        "baseColorFactor": [
          0.8,
          0.8,
          0.8,
          1.0
        ],
        "metallicFactor": 0.0,
        "roughnessFactor": 0.5
      }
    },
    {
      "doubleSided": true,
      "name": "Socket",
      "pbrMetallicRoughness": {
        "baseColorFactor": [
          0.8,
          0.8,
          0.8,
          1.0
        ],
        "metallicFactor": 0.0,
        "roughnessFactor": 0.1
      }
    }
  ],
  "meshes": [
    {
      "name": "Object_0",
      "primitives": [
        {
          "attributes": {
            "NORMAL": 1,
            "POSITION": 0,
            "TEXCOORD_0": 2,
            "TEXCOORD_1": 3
          },
          "indices": 4,
          "material": 0,
          "mode": 4
        }
      ]
    },
    {
      "name": "Object_1",
      "primitives": [
        {
          "attributes": {
            "NORMAL": 6,
            "POSITION": 5,
            "TEXCOORD_0": 7,
            "TEXCOORD_1": 8
          },
          "indices": 9,
          "material": 1,
          "mode": 4
        }
      ]
    },
    {
      "name": "Object_2",
      "primitives": [
        {
          "attributes": {
            "NORMAL": 11,
            "POSITION": 10,
            "TEXCOORD_0": 12,
            "TEXCOORD_1": 13
          },
          "indices": 14,
          "material": 2,
          "mode": 4
        }
      ]
    },
    {
      "name": "Object_3",
      "primitives": [
        {
          "attributes": {
            "NORMAL": 16,
            "POSITION": 15,
            "TEXCOORD_0": 17,
            "TEXCOORD_1": 18
          },
          "indices": 19,
          "material": 3,
          "mode": 4
        }
      ]
    },
    {
      "name": "Object_4",
      "primitives": [
        {
          "attributes": {
            "NORMAL": 21,
            "POSITION": 20,
            "TEXCOORD_0": 22,
            "TEXCOORD_1": 23
          },
          "indices": 24,
          "material": 0,
          "mode": 4
        }
      ]
    },
    {
      "name": "Object_5",
      "primitives": [
        {
          "attributes": {
            "NORMAL": 26,
            "POSITION": 25,
            "TEXCOORD_0": 27,
            "TEXCOORD_1": 28
          },
          "indices": 29,
          "material": 1,
          "mode": 4
        }
      ]
    },
    {
      "name": "Object_6",
      "primitives": [
        {
          "attributes": {
            "NORMAL": 31,
            "POSITION": 30,
            "TEXCOORD_0": 32,
            "TEXCOORD_1": 33
          },
          "indices": 34,
          "material": 2,
          "mode": 4
        }
      ]
    },
    {
      "name": "Object_7",
      "primitives": [
        {
          "attributes": {
            "NORMAL": 36,
            "POSITION": 35,
            "TEXCOORD_0": 37,
            "TEXCOORD_1": 38
          },
          "indices": 39,
          "material": 3,
          "mode": 4
        }
      ]
    },
    {
      "name": "Object_8",
      "primitives": [
        {
          "attributes": {
            "NORMAL": 41,
            "POSITION": 40,
            "TEXCOORD_0": 42,
            "TEXCOORD_1": 43
          },
          "indices": 44,
          "material": 0,
          "mode": 4
        }
      ]
    },
    {
      "name": "Object_9",
      "primitives": [
        {
          "attributes": {
            "NORMAL": 46,
            "POSITION": 45,
            "TEXCOORD_0": 47,
            "TEXCOORD_1": 48
          },
          "indices": 49,
          "material": 1,
          "mode": 4
        }
      ]
    },
    {
      "name": "Object_10",
      "primitives": [
        {
          "attributes": {
            "NORMAL": 51,
            "POSITION": 50,
            "TEXCOORD_0": 52,
            "TEXCOORD_1": 53
          },
          "indices": 54,
          "material": 2,
          "mode": 4
        }
      ]
    },
    {
      "name": "Object_11",
      "primitives": [
        {
          "attributes": {
            "NORMAL": 56,
            "POSITION": 55,
            "TEXCOORD_0": 57,
            "TEXCOORD_1": 58
          },
          "indices": 59,
          "material": 3,
          "mode": 4
        }
      ]
    }
  ],
  "nodes": [
    {
      "children": [
        1
      ],
      "matrix": [
        1.0,
        0.0,
        0.0,
        0.0,
        0.0,
        2.220446049250313e-16,
        -1.0,
        0.0,
        0.0,
        1.0,
        2.220446049250313e-16,
        0.0,
        0.0,
        0.0,
        0.0,
        1.0
      ],
      "name": "Sketchfab_model"
    },
    {
      "children": [
        2
      ],
      "name": "root"
    },
    {
      "children": [
        3,
        8,
        13
      ],
      "matrix": [
        1.0,
        0.0,
        0.0,
        0.0,
        0.0,
        2.220446049250313e-16,
        1.0,
        0.0,
        0.0,
        -1.0,
        2.220446049250313e-16,
        0.0,
        0.0,
        0.0,
        0.0,
        1.0
      ],
      "name": "GLTF_SceneRootNode"
    },
    {
      "children": [
        4,
        5,
        6,
        7
      ],
      "matrix": [
        1.0,
        0.0,
        0.0,
        0.0,
        0.0,
        1.0,
        0.0,
        0.0,
        0.0,
        0.0,
        1.0,
        0.0,
        -2.017796277999878,
        0.6813040971755981,
        1.0,
        1.0
      ],
      "name": "FaerieLight4_0"
    },
    {
      "mesh": 0,
      "name": "Object_4"
    },
    {
      "mesh": 1,
      "name": "Object_5"
    },
    {
      "mesh": 2,
      "name": "Object_6"
    },
    {
      "mesh": 3,
      "name": "Object_7"
    },
    {
      "children": [
        9,
        10,
        11,
        12
      ],
      "matrix": [
        1.0,
        0.0,
        0.0,
        0.0,
        0.0,
        1.0,
        0.0,
        0.0,
        0.0,
        0.0,
        1.0,
        0.0,
        -2.017796277999878,
        0.6813040971755981,
        0.0,
        1.0
      ],
      "name": "FaerieLight_1"
    },
    {
      "mesh": 4,
      "name": "Object_9"
    },
    {
      "mesh": 5,
      "name": "Object_10"
    },
    {
      "mesh": 6,
      "name": "Object_11"
    },
    {
      "mesh": 7,
      "name": "Object_12"
    },
    {
      "children": [
        14,
        15,
        16,
        17
      ],
      "matrix": [
        1.0,
        0.0,
        0.0,
        0.0,
        0.0,
        1.0,
        0.0,
        0.0,
        0.0,
        0.0,
        1.0,
        0.0,
        -2.017796277999878,
        0.6813040971755981,
        -1.0,
        1.0
      ],
      "name": "FaerieLight2_2"
    },
    {
      "mesh": 8,
      "name": "Object_14"
    },
    {
      "mesh": 9,
      "name": "Object_15"
    },
    {
      "mesh": 10,
      "name": "Object_16"
    },
    {
      "mesh": 11,
      "name": "Object_17"
    }
  ],
  "scene": 0,
  "scenes": [
    {
      "name": "Sketchfab_Scene",
      "nodes": [
        0
      ]
    }
  ]
}
