{
  "accessors": [
    {
      "bufferView": 2,
      "componentType": 5126,
      "count": 7824,
      "max": [
        201.87648010253906,
        6.999973297119141,
        65.28453063964844
      ],
      "min": [
        128.64479064941406,
        -60.34228515625,
        -0.05884981155395508
      ],
      "type": "VEC3"
    },
    {
      "bufferView": 2,
      "byteOffset": 93888,
      "componentType": 5126,
      "count": 7824,
      "max": [
        1.0,
        1.0,
        1.0
      ],
      "min": [
        -1.0,
        -1.0,
        -1.0
      ],
      "type": "VEC3"
    },
    {
      "bufferView": 3,
      "componentType": 5126,
      "count": 7824,
      "max": [
        1.0,
        1.0,
        0.9858261942863464,
        1.0
      ],
      "min": [
        -1.0,
        -1.0,
        -1.0,
        -1.0
      ],
      "type": "VEC4"
    },
    {
      "bufferView": 1,
      "componentType": 5126,
      "count": 7824,
      "max": [
        0.9933080077171326,
        0.9934893846511841
      ],
      "min": [
        0.010150609537959099,
        0.007851012982428074
      ],
      "type": "VEC2"
    },
    {
      "bufferView": 1,
      "byteOffset": 62592,
      "componentType": 5126,
      "count": 7824,
      "max": [
        0.9933080077171326,
        0.9934893846511841
      ],
      "min": [
        0.010150609537959099,
        0.007851012982428074
      ],
      "type": "VEC2"
    },
    {
      "bufferView": 0,
      "componentType": 5125,
      "count": 37980,
      "type": "SCALAR"
    }
  ],
  "asset": {
    "extras": {
      "author": "Paul (https://sketchfab.com/nathan.d1563)",
      "license": "CC-BY-4.0 (http://creativecommons.org/licenses/by/4.0/)",
      "source": "https://sketchfab.com/3d-models/wine-objects-51afc2f857cb41b3b93b2f43835d2ba8",
      "title": "Wine Objects"
    },
    "generator": "Sketchfab-12.66.0",
    "version": "2.0"
  },
  "bufferViews": [
    {
      "buffer": 0,
      "byteLength": 151920,
      "name": "floatBufferViews",
      "target": 34963
    },
    {
      "buffer": 0,
      "byteLength": 125184,
      "byteOffset": 151920,
      "byteStride": 8,
      "name": "floatBufferViews",
      "target": 34962
    },
    {
      "buffer": 0,
      "byteLength": 187776,
      "byteOffset": 277104,
      "byteStride": 12,
      "name": "floatBufferViews",
      "target": 34962
    },
    {
      "buffer": 0,
      "byteLength": 125184,
      "byteOffset": 464880,
      "byteStride": 16,
      "name": "floatBufferViews",
      "target": 34962
    }
  ],
  "buffers": [
    {
      "byteLength": 590064,
      "uri": "scene.bin"
    }
  ],
  "images": [
    {
      "uri": "textures/Test_baseColor.png"
    },
    {
      "uri": "textures/Test_metallicRoughness.png"
    },
    {
      "uri": "textures/Test_normal.png"
    }
  ],
  "materials": [
    {
      "alphaMode": "BLEND",
      "doubleSided": true,
      "name": "Test",
      "normalTexture": {
        "index": 2
      },
      "pbrMetallicRoughness": {
        "baseColorTexture": {
          "index": 0
        },
        "metallicFactor": 0.2943978658536585,
        "metallicRoughnessTexture": {
          "index": 1
        },
        "roughnessFactor": 0.9590320121951219
      }
    }
  ],
  "meshes": [
    {
      "name": "pCylinder6_Test_0",
      "primitives": [
        {
          "attributes": {
            "NORMAL": 1,
            "POSITION": 0,
            "TANGENT": 2,
            "TEXCOORD_0": 3,
            "TEXCOORD_1": 4
          },
          "indices": 5,
          "material": 0,
          "mode": 4
        }
      ]
    }
  ],
  "nodes": [
    {
      "children": [
        1
      ],
      "matrix": [
        1.0,
        0.0,
        0.0,
        0.0,
        0.0,
        2.220446049250313e-16,
        -1.0,
        0.0,
        0.0,
        1.0,
        2.220446049250313e-16,
        0.0,
        0.0,
        0.0,
        0.0,
        1.0
      ],
      "name": "Sketchfab_model"
    },
    {
      "children": [
        2
      ],
      "matrix": [
        1.0,
        0.0,
        0.0,
        0.0,
        0.0,
        0.0,
        1.0,
        0.0,
        0.0,
        -1.0,
        0.0,
        0.0,
        0.0,
        0.0,
        0.0,
        1.0
      ],
      "name": "96507aaf0d8d4f51b171ef4aa1ab017b.fbx"
    },
    {
      "children": [
        3
      ],
      "name": "RootNode"
    },
    {
      "children": [
        4
      ],
      "matrix": [
        1.0,
        0.0,
        0.0,
        0.0,
        0.0,
        2.220446049250313e-16,
        -1.0,
        0.0,
        0.0,
        1.0,
        2.220446049250313e-16,
        0.0,
        0.0,
        0.0,
        -3.552713678800501e-15,
        1.0
      ],
      "name": "pCylinder6"
    },
    {
      "mesh": 0,
      "name": "pCylinder6_Test_0"
    }
  ],
  "samplers": [
    {
      "magFilter": 9729,
      "minFilter": 9987,
      "wrapS": 10497,
      "wrapT": 10497
    }
  ],
  "scene": 0,
  "scenes": [
    {
      "name": "Sketchfab_Scene",
      "nodes": [
        0
      ]
    }
  ],
  "textures": [
    {
      "sampler": 0,
      "source": 0
    },
    {
      "sampler": 0,
      "source": 1
    },
    {
      "sampler": 0,
      "source": 2
    }
  ]
}
