{
  "accessors": [
    {
      "bufferView": 2,
      "componentType": 5126,
      "count": 2914,
      "max": [
        69.4262466430664,
        481.18365478515625,
        69.42398071289063
      ],
      "min": [
        -65.84308624267578,
        0.0,
        -63.81229019165039
      ],
      "type": "VEC3"
    },
    {
      "bufferView": 2,
      "byteOffset": 34968,
      "componentType": 5126,
      "count": 2914,
      "max": [
        0.9995468854904175,
        0.9988259673118591,
        0.9999212026596069
      ],
      "min": [
        -0.9999972581863403,
        -0.9989932179450989,
        -0.9995794296264648
      ],
      "type": "VEC3"
    },
    {
      "bufferView": 3,
      "componentType": 5126,
      "count": 2914,
      "max": [
        0.9998243451118469,
        0.9999219179153442,
        0.9999961853027344,
        1.0
      ],
      "min": [
        -0.9999891519546509,
        -0.9999946355819702,
        -0.999879002571106,
        -1.0
      ],
      "type": "VEC4"
    },
    {
      "bufferView": 1,
      "componentType": 5126,
      "count": 2914,
      "max": [
        0.9985399842262268,
        8.568889617919922
      ],
      "min": [
        0.00039000000106170774,
        1.0
      ],
      "type": "VEC2"
    },
    {
      "bufferView": 0,
      "componentType": 5125,
      "count": 13617,
      "type": "SCALAR"
    },
    {
      "bufferView": 2,
      "byteOffset": 69936,
      "componentType": 5126,
      "count": 1088,
      "max": [
        110.62384033203125,
        531.5150756835938,
        111.54609680175781
      ],
      "min": [
        -107.67622375488281,
        202.52426147460938,
        -105.10630798339844
      ],
      "type": "VEC3"
    },
    {
      "bufferView": 2,
      "byteOffset": 82992,
      "componentType": 5126,
      "count": 1088,
      "max": [
        0.9996753334999084,
        0.9914620518684387,
        0.9997286796569824
      ],
      "min": [
        -0.9981439113616943,
        -0.49693813920021057,
        -0.9997379779815674
      ],
      "type": "VEC3"
    },
    {
      "bufferView": 3,
      "byteOffset": 46624,
      "componentType": 5126,
      "count": 1088,
      "max": [
        0.9956458210945129,
        0.9993602633476257,
        0.9990760087966919,
        1.0
      ],
      "min": [
        -0.9933846592903137,
        -0.9829095005989075,
        -0.9998503923416138,
        -1.0
      ],
      "type": "VEC4"
    },
    {
      "bufferView": 1,
      "byteOffset": 23312,
      "componentType": 5126,
      "count": 1088,
      "max": [
        0.9986100196838379,
        0.9985100030899048
      ],
      "min": [
        0.0015899999998509884,
        0.0014900000533089042
      ],
      "type": "VEC2"
    },
    {
      "bufferView": 0,
      "byteOffset": 54468,
      "componentType": 5125,
      "count": 3264,
      "type": "SCALAR"
    }
  ],
  "asset": {
    "extras": {
      "author": "evolveduk (https://sketchfab.com/evolveduk)",
      "license": "CC-BY-4.0 (http://creativecommons.org/licenses/by/4.0/)",
      "source": "https://sketchfab.com/3d-models/pine-tree-d45218a3fab349e5b1de040f29e7b6f9",
      "title": "Pine Tree"
    },
    "generator": "Sketchfab-13.83.0",
    "version": "2.0"
  },
  "bufferViews": [
    {
      "buffer": 0,
      "byteLength": 67524,
      "name": "floatBufferViews",
      "target": 34963
    },
    {
      "buffer": 0,
      "byteLength": 32016,
      "byteOffset": 67524,
      "byteStride": 8,
      "name": "floatBufferViews",
      "target": 34962
    },
    {
      "buffer": 0,
      "byteLength": 96048,
      "byteOffset": 99540,
      "byteStride": 12,
      "name": "floatBufferViews",
      "target": 34962
    },
    {
      "buffer": 0,
      "byteLength": 64032,
      "byteOffset": 195588,
      "byteStride": 16,
      "name": "floatBufferViews",
      "target": 34962
    }
  ],
  "buffers": [
    {
      "byteLength": 259620,
      "uri": "scene.bin"
    }
  ],
  "images": [
    {
      "uri": "textures/Tree_0Mat_baseColor.png"
    },
    {
      "uri": "textures/Tree_0Mat_metallicRoughness.png"
    },
    {
      "uri": "textures/Tree_0Mat_normal.png"
    },
    {
      "uri": "textures/Tree_1Mat_baseColor.png"
    },
    {
      "uri": "textures/Tree_1Mat_metallicRoughness.png"
    },
    {
      "uri": "textures/Tree_1Mat_normal.png"
    }
  ],
  "materials": [
    {
      "name": "Tree_0Mat",
      "normalTexture": {
        "index": 2
      },
      "pbrMetallicRoughness": {
        "baseColorTexture": {
          "index": 0
        },
        "metallicFactor": 0.0,
        "metallicRoughnessTexture": {
          "index": 1
        }
      }
    },
    {
      "alphaCutoff": 0.207986616724512,
      "alphaMode": "MASK",
      "doubleSided": true,
      "name": "Tree_1Mat",
      "normalTexture": {
        "index": 5
      },
      "pbrMetallicRoughness": {
        "baseColorTexture": {
          "index": 3
        },
        "metallicFactor": 0.0,
        "metallicRoughnessTexture": {
          "index": 4
        }
      }
    }
  ],
  "meshes": [
    {
      "name": "Tree_0_Tree_0Mat_0",
      "primitives": [
        {
          "attributes": {
            "NORMAL": 1,
            "POSITION": 0,
            "TANGENT": 2,
            "TEXCOORD_0": 3
          },
          "indices": 4,
          "material": 0,
          "mode": 4
        }
      ]
    },
    {
      "name": "Tree_1_Tree_1Mat_0",
      "primitives": [
        {
          "attributes": {
            "NORMAL": 6,
            "POSITION": 5,
            "TANGENT": 7,
            "TEXCOORD_0": 8
          },
          "indices": 9,
          "material": 1,
          "mode": 4
        }
      ]
    }
  ],
  "nodes": [
    {
      "children": [
        1
      ],
      "matrix": [
        1.0,
        0.0,
        0.0,
        0.0,
        0.0,
        2.220446049250313e-16,
        -1.0,
        0.0,
        0.0,
        1.0,
        2.220446049250313e-16,
        0.0,
        0.0,
        0.0,
        0.0,
        1.0
      ],
      "name": "Sketchfab_model"
    },
    {
      "children": [
        2
      ],
      "matrix": [
        0.009999999776482582,
        0.0,
        0.0,
        0.0,
        0.0,
        0.0,
        0.009999999776482582,
        0.0,
        0.0,
        -0.009999999776482582,
        0.0,
        0.0,
        0.0,
        0.0,
        0.0,
        1.0
      ],
      "name": "Pine.fbx"
    },
    {
      "children": [
        3
      ],
      "name": "RootNode"
    },
    {
      "children": [
        4,
        5
      ],
      "name": "Tree_0"
    },
    {
      "mesh": 0,
      "name": "Tree_0_Tree_0Mat_0"
    },
    {
      "children": [
        6
      ],
      "name": "Tree_1"
    },
    {
      "mesh": 1,
      "name": "Tree_1_Tree_1Mat_0"
    }
  ],
  "samplers": [
    {
      "magFilter": 9729,
      "minFilter": 9987,
      "wrapS": 10497,
      "wrapT": 10497
    }
  ],
  "scene": 0,
  "scenes": [
    {
      "name": "Sketchfab_Scene",
      "nodes": [
        0
      ]
    }
  ],
  "textures": [
    {
      "sampler": 0,
      "source": 0
    },
    {
      "sampler": 0,
      "source": 1
    },
    {
      "sampler": 0,
      "source": 2
    },
    {
      "sampler": 0,
      "source": 3
    },
    {
      "sampler": 0,
      "source": 4
    },
    {
      "sampler": 0,
      "source": 5
    }
  ]
}
