{
  "accessors": [
    {
      "bufferView": 2,
      "componentType": 5126,
      "count": 1682,
      "max": [
        2.682252883911133,
        0.8508960008621216,
        4.639440059661865
      ],
      "min": [
        0.789326012134552,
        -1.2016019821166992,
        2.585875988006592
      ],
      "type": "VEC3"
    },
    {
      "bufferView": 2,
      "byteOffset": 20184,
      "componentType": 5126,
      "count": 1682,
      "max": [
        1.0,
        1.0,
        1.0
      ],
      "min": [
        -1.0,
        -1.0,
        -1.0
      ],
      "type": "VEC3"
    },
    {
      "bufferView": 1,
      "componentType": 5126,
      "count": 1682,
      "max": [
        0.836899995803833,
        0.9998000264167786
      ],
      "min": [
        0.00019999999494757503,
        0.00019999999494757503
      ],
      "type": "VEC2"
    },
    {
      "bufferView": 0,
      "componentType": 5125,
      "count": 8850,
      "type": "SCALAR"
    },
    {
      "bufferView": 2,
      "byteOffset": 40368,
      "componentType": 5126,
      "count": 152,
      "max": [
        2.04885196685791,
        -0.25835898518562317,
        4.832959175109863
      ],
      "min": [
        1.4179530143737793,
        -0.8892580270767212,
        3.9129440784454346
      ],
      "type": "VEC3"
    },
    {
      "bufferView": 2,
      "byteOffset": 42192,
      "componentType": 5126,
      "count": 152,
      "max": [
        0.9995630979537964,
        0.9995630979537964,
        0.9380725026130676
      ],
      "min": [
        -0.9995630979537964,
        -0.9995630979537964,
        -0.9786868095397949
      ],
      "type": "VEC3"
    },
    {
      "bufferView": 1,
      "byteOffset": 13456,
      "componentType": 5126,
      "count": 152,
      "max": [
        0.2840999960899353,
        0.7434999942779541
      ],
      "min": [
        0.00019999999494757503,
        0.5426999926567078
      ],
      "type": "VEC2"
    },
    {
      "bufferView": 0,
      "byteOffset": 35400,
      "componentType": 5125,
      "count": 714,
      "type": "SCALAR"
    },
    {
      "bufferView": 2,
      "byteOffset": 44016,
      "componentType": 5126,
      "count": 7854,
      "max": [
        2.8306610584259033,
        0.5235069990158081,
        5.4881911277771
      ],
      "min": [
        0.6360340118408203,
        -1.671278953552246,
        3.6913459300994873
      ],
      "type": "VEC3"
    },
    {
      "bufferView": 2,
      "byteOffset": 138264,
      "componentType": 5126,
      "count": 7854,
      "max": [
        0.9999595880508423,
        0.9999563694000244,
        0.9999607801437378
      ],
      "min": [
        -0.9999563694000244,
        -0.9999563694000244,
        -0.9878568053245544
      ],
      "type": "VEC3"
    },
    {
      "bufferView": 1,
      "byteOffset": 14672,
      "componentType": 5126,
      "count": 7854,
      "max": [
        0.9713000059127808,
        0.9998000264167786
      ],
      "min": [
        0.00019999999494757503,
        0.00019999999494757503
      ],
      "type": "VEC2"
    },
    {
      "bufferView": 0,
      "byteOffset": 38256,
      "componentType": 5125,
      "count": 40788,
      "type": "SCALAR"
    },
    {
      "bufferView": 2,
      "byteOffset": 232512,
      "componentType": 5126,
      "count": 986,
      "max": [
        2.945190906524658,
        0.6379809975624084,
        6.687108993530273
      ],
      "min": [
        0.5216140151023865,
        -1.7855960130691528,
        5.446249008178711
      ],
      "type": "VEC3"
    },
    {
      "bufferView": 2,
      "byteOffset": 244344,
      "componentType": 5126,
      "count": 986,
      "max": [
        0.9999984502792358,
        0.9999984502792358,
        1.0
      ],
      "min": [
        -0.9999984502792358,
        -0.9999984502792358,
        -1.0
      ],
      "type": "VEC3"
    },
    {
      "bufferView": 1,
      "byteOffset": 77504,
      "componentType": 5126,
      "count": 986,
      "max": [
        0.7657999992370605,
        0.9998999834060669
      ],
      "min": [
        9.999999747378752e-05,
        9.999999747378752e-05
      ],
      "type": "VEC2"
    },
    {
      "bufferView": 0,
      "byteOffset": 201408,
      "componentType": 5125,
      "count": 5472,
      "type": "SCALAR"
    },
    {
      "bufferView": 2,
      "byteOffset": 256176,
      "componentType": 5126,
      "count": 32,
      "max": [
        2.7138140201568604,
        0.39910998940467834,
        5.350697994232178
      ],
      "min": [
        0.7529910206794739,
        -1.5617129802703857,
        3.7573111057281494
      ],
      "type": "VEC3"
    },
    {
      "bufferView": 2,
      "byteOffset": 256560,
      "componentType": 5126,
      "count": 32,
      "max": [
        0.9591534733772278,
        0.9591534733772278,
        -0.282886266708374
      ],
      "min": [
        -0.9591534733772278,
        -0.9591534733772278,
        -0.2829081118106842
      ],
      "type": "VEC3"
    },
    {
      "bufferView": 1,
      "byteOffset": 85392,
      "componentType": 5126,
      "count": 32,
      "max": [
        0.8483999967575073,
        0.9998000264167786
      ],
      "min": [
        0.00019999999494757503,
        0.00019999999494757503
      ],
      "type": "VEC2"
    },
    {
      "bufferView": 0,
      "byteOffset": 223296,
      "componentType": 5125,
      "count": 48,
      "type": "SCALAR"
    },
    {
      "bufferView": 2,
      "byteOffset": 256944,
      "componentType": 5126,
      "count": 4,
      "max": [
        2.283776044845581,
        0.7944769859313965,
        4.368624210357666
      ],
      "min": [
        1.734794020652771,
        0.7912780046463013,
        3.5562520027160645
      ],
      "type": "VEC3"
    },
    {
      "bufferView": 2,
      "byteOffset": 256992,
      "componentType": 5126,
      "count": 4,
      "max": [
        0.018799878656864166,
        1.0,
        0.014299969188869
      ],
      "min": [
        0.0,
        0.9997578263282776,
        -0.00039999998989515007
      ],
      "type": "VEC3"
    },
    {
      "bufferView": 1,
      "byteOffset": 85648,
      "componentType": 5126,
      "count": 4,
      "max": [
        0.5001999735832214,
        0.76419997215271
      ],
      "min": [
        0.4108000099658966,
        0.6319000124931335
      ],
      "type": "VEC2"
    },
    {
      "bufferView": 0,
      "byteOffset": 223488,
      "componentType": 5125,
      "count": 6,
      "type": "SCALAR"
    }
  ],
  "asset": {
    "extras": {
      "author": "bryanthealy (https://sketchfab.com/bryanthealy)",
      "license": "CC-BY-4.0 (http://creativecommons.org/licenses/by/4.0/)",
      "source": "https://sketchfab.com/3d-models/wall-lamp-2594d3763c9043929c2e3143a2141f3c",
      "title": "Wall Lamp"
    },
    "generator": "Sketchfab-12.65.0",
    "version": "2.0"
  },
  "bufferViews": [
    {
      "buffer": 0,
      "byteLength": 223512,
      "name": "floatBufferViews",
      "target": 34963
    },
    {
      "buffer": 0,
      "byteLength": 85680,
      "byteOffset": 223512,
      "byteStride": 8,
      "name": "floatBufferViews",
      "target": 34962
    },
    {
      "buffer": 0,
      "byteLength": 257040,
      "byteOffset": 309192,
      "byteStride": 12,
      "name": "floatBufferViews",
      "target": 34962
    }
  ],
  "buffers": [
    {
      "byteLength": 566232,
      "uri": "scene.bin"
    }
  ],
  "extensionsUsed": [
    "KHR_materials_clearcoat"
  ],
  "images": [
    {
      "uri": "textures/Material_baseColor.png"
    },
    {
      "uri": "textures/Material_metallicRoughness.png"
    },
    {
      "uri": "textures/Material.001_metallicRoughness.png"
    },
    {
      "uri": "textures/Material.002_baseColor.png"
    },
    {
      "uri": "textures/Material.002_metallicRoughness.png"
    },
    {
      "uri": "textures/Material.003_baseColor.png"
    },
    {
      "uri": "textures/Material.003_metallicRoughness.png"
    }
  ],
  "materials": [
    {
      "doubleSided": true,
      "name": "Material",
      "occlusionTexture": {
        "index": 1
      },
      "pbrMetallicRoughness": {
        "baseColorTexture": {
          "index": 0
        },
        "metallicRoughnessTexture": {
          "index": 1
        },
        "roughnessFactor": 0.6
      }
    },
    {
      "alphaMode": "BLEND",
      "doubleSided": true,
      "emissiveFactor": [
        1.0,
        1.0,
        1.0
      ],
      "extensions": {
        "KHR_materials_clearcoat": {
          "clearcoatFactor": 1.0,
          "clearcoatRoughnessFactor": 0.04
        }
      },
      "name": "Material.001",
      "pbrMetallicRoughness": {
        "baseColorFactor": [
          1.0,
          1.0,
          1.0,
          0.2151295731707317
        ],
        "baseColorTexture": {
          "index": 0
        },
        "metallicRoughnessTexture": {
          "index": 2
        },
        "roughnessFactor": 0.0
      }
    },
    {
      "doubleSided": true,
      "name": "Material.002",
      "occlusionTexture": {
        "index": 4
      },
      "pbrMetallicRoughness": {
        "baseColorTexture": {
          "index": 3
        },
        "metallicRoughnessTexture": {
          "index": 4
        },
        "roughnessFactor": 0.6
      }
    },
    {
      "doubleSided": true,
      "name": "Material.003",
      "occlusionTexture": {
        "index": 6
      },
      "pbrMetallicRoughness": {
        "baseColorTexture": {
          "index": 5
        },
        "metallicRoughnessTexture": {
          "index": 6
        },
        "roughnessFactor": 0.33708079268292684
      }
    },
    {
      "alphaMode": "BLEND",
      "doubleSided": true,
      "emissiveFactor": [
        0.8400653347422413,
        0.8612287577116055,
        0.5562998220387944
      ],
      "extensions": {
        "KHR_materials_clearcoat": {
          "clearcoatFactor": 1.0,
          "clearcoatRoughnessFactor": 0.04
        }
      },
      "name": "Material.004",
      "pbrMetallicRoughness": {
        "baseColorFactor": [
          0.893754514180651,
          0.9309814245047139,
          0.6364571047353336,
          0.3858612804878049
        ],
        "metallicFactor": 0.8553734756097561,
        "roughnessFactor": 0.23608993902439024
      }
    },
    {
      "doubleSided": true,
      "name": "Material_LAMPBASE",
      "pbrMetallicRoughness": {
        "baseColorTexture": {
          "index": 0
        },
        "metallicFactor": 0.0,
        "roughnessFactor": 0.6
      }
    }
  ],
  "meshes": [
    {
      "name": "Object_0",
      "primitives": [
        {
          "attributes": {
            "NORMAL": 1,
            "POSITION": 0,
            "TEXCOORD_0": 2
          },
          "indices": 3,
          "material": 0,
          "mode": 4
        }
      ]
    },
    {
      "name": "Object_1",
      "primitives": [
        {
          "attributes": {
            "NORMAL": 5,
            "POSITION": 4,
            "TEXCOORD_0": 6
          },
          "indices": 7,
          "material": 1,
          "mode": 4
        }
      ]
    },
    {
      "name": "Object_2",
      "primitives": [
        {
          "attributes": {
            "NORMAL": 9,
            "POSITION": 8,
            "TEXCOORD_0": 10
          },
          "indices": 11,
          "material": 2,
          "mode": 4
        }
      ]
    },
    {
      "name": "Object_3",
      "primitives": [
        {
          "attributes": {
            "NORMAL": 13,
            "POSITION": 12,
            "TEXCOORD_0": 14
          },
          "indices": 15,
          "material": 3,
          "mode": 4
        }
      ]
    },
    {
      "name": "Object_4",
      "primitives": [
        {
          "attributes": {
            "NORMAL": 17,
            "POSITION": 16,
            "TEXCOORD_0": 18
          },
          "indices": 19,
          "material": 4,
          "mode": 4
        }
      ]
    },
    {
      "name": "Object_5",
      "primitives": [
        {
          "attributes": {
            "NORMAL": 21,
            "POSITION": 20,
            "TEXCOORD_0": 22
          },
          "indices": 23,
          "material": 5,
          "mode": 4
        }
      ]
    }
  ],
  "nodes": [
    {
      "children": [
        1
      ],
      "matrix": [
        0.32238468527793884,
        0.0,
        0.0,
        0.0,
        0.0,
        7.158378007642049e-17,
        -0.32238468527793884,
        0.0,
        0.0,
        0.32238468527793884,
        7.158378007642049e-17,
        0.0,
        0.0,
        0.0,
        0.0,
        1.0
      ],
      "name": "Sketchfab_model"
    },
    {
      "children": [
        2,
        3,
        4,
        5,
        6,
        7
      ],
      "name": "lampara.obj.cleaner.materialmerger.gles"
    },
    {
      "mesh": 0,
      "name": "Object_2"
    },
    {
      "mesh": 1,
      "name": "Object_3"
    },
    {
      "mesh": 2,
      "name": "Object_4"
    },
    {
      "mesh": 3,
      "name": "Object_5"
    },
    {
      "mesh": 4,
      "name": "Object_6"
    },
    {
      "mesh": 5,
      "name": "Object_7"
    }
  ],
  "samplers": [
    {
      "magFilter": 9729,
      "minFilter": 9987,
      "wrapS": 10497,
      "wrapT": 10497
    }
  ],
  "scene": 0,
  "scenes": [
    {
      "name": "Sketchfab_Scene",
      "nodes": [
        0
      ]
    }
  ],
  "textures": [
    {
      "sampler": 0,
      "source": 0
    },
    {
      "sampler": 0,
      "source": 1
    },
    {
      "sampler": 0,
      "source": 2
    },
    {
      "sampler": 0,
      "source": 3
    },
    {
      "sampler": 0,
      "source": 4
    },
    {
      "sampler": 0,
      "source": 5
    },
    {
      "sampler": 0,
      "source": 6
    }
  ]
}
