{
  "accessors": [
    {
      "bufferView": 2,
      "componentType": 5126,
      "count": 2234,
      "max": [
        4.112201690673828,
        2.9070467948913574,
        5.25314998626709
      ],
      "min": [
        -2.0081770420074463,
        -2.635232448577881,
        -0.29722076654434204
      ],
      "type": "VEC3"
    },
    {
      "bufferView": 2,
      "byteOffset": 26808,
      "componentType": 5126,
      "count": 2234,
      "max": [
        1.0,
        1.0,
        1.0
      ],
      "min": [
        -1.0,
        -1.0,
        -1.0
      ],
      "type": "VEC3"
    },
    {
      "bufferView": 3,
      "componentType": 5126,
      "count": 2234,
      "max": [
        1.0,
        1.0,
        1.0,
        1.0
      ],
      "min": [
        -1.0,
        -1.0,
        -1.0,
        1.0
      ],
      "type": "VEC4"
    },
    {
      "bufferView": 1,
      "componentType": 5126,
      "count": 2234,
      "max": [
        0.9999755620956421,
        0.9761151075363159
      ],
      "min": [
        2.441406286379788e-05,
        2.441406286379788e-05
      ],
      "type": "VEC2"
    },
    {
      "bufferView": 0,
      "componentType": 5125,
      "count": 3618,
      "type": "SCALAR"
    },
    {
      "bufferView": 2,
      "byteOffset": 53616,
      "componentType": 5126,
      "count": 488,
      "max": [
        4.08330774307251,
        1.878922462463379,
        3.9109909534454346
      ],
      "min": [
        -1.772554874420166,
        -1.3938179016113281,
        0.3601052761077881
      ],
      "type": "VEC3"
    },
    {
      "bufferView": 2,
      "byteOffset": 59472,
      "componentType": 5126,
      "count": 488,
      "max": [
        1.0,
        0.9697052240371704,
        0.9999976754188538
      ],
      "min": [
        -1.0,
        -0.9697052240371704,
        -1.0
      ],
      "type": "VEC3"
    },
    {
      "bufferView": 3,
      "byteOffset": 35744,
      "componentType": 5126,
      "count": 488,
      "max": [
        1.0,
        0.9999986886978149,
        0.9695941805839539,
        1.0
      ],
      "min": [
        -1.0,
        -0.9977067112922668,
        -0.9991083741188049,
        1.0
      ],
      "type": "VEC4"
    },
    {
      "bufferView": 1,
      "byteOffset": 17872,
      "componentType": 5126,
      "count": 488,
      "max": [
        0.9999755620956421,
        0.961006224155426
      ],
      "min": [
        2.441406286379788e-05,
        2.441406286379788e-05
      ],
      "type": "VEC2"
    },
    {
      "bufferView": 0,
      "byteOffset": 14472,
      "componentType": 5125,
      "count": 1116,
      "type": "SCALAR"
    },
    {
      "bufferView": 2,
      "byteOffset": 65328,
      "componentType": 5126,
      "count": 1036,
      "max": [
        2.2422094345092773,
        2.7859768867492676,
        4.215007305145264
      ],
      "min": [
        -2.2422094345092773,
        -2.2747931480407715,
        1.0198414325714111
      ],
      "type": "VEC3"
    },
    {
      "bufferView": 2,
      "byteOffset": 77760,
      "componentType": 5126,
      "count": 1036,
      "max": [
        0.905255913734436,
        1.0,
        1.0
      ],
      "min": [
        -0.905255913734436,
        -1.0,
        -1.0
      ],
      "type": "VEC3"
    },
    {
      "bufferView": 3,
      "byteOffset": 43552,
      "componentType": 5126,
      "count": 1036,
      "max": [
        0.9999180436134338,
        1.0,
        0.906101405620575,
        1.0
      ],
      "min": [
        -0.9962400197982788,
        -1.0,
        -0.9119815230369568,
        -1.0
      ],
      "type": "VEC4"
    },
    {
      "bufferView": 1,
      "byteOffset": 21776,
      "componentType": 5126,
      "count": 1036,
      "max": [
        0.9999755620956421,
        0.8631746768951416
      ],
      "min": [
        2.441406286379788e-05,
        2.441406286379788e-05
      ],
      "type": "VEC2"
    },
    {
      "bufferView": 0,
      "byteOffset": 18936,
      "componentType": 5125,
      "count": 3612,
      "type": "SCALAR"
    },
    {
      "bufferView": 2,
      "byteOffset": 90192,
      "componentType": 5126,
      "count": 3484,
      "max": [
        4.25437068939209,
        2.4921813011169434,
        4.8008527755737305
      ],
      "min": [
        -1.812840461730957,
        -2.2939672470092773,
        -0.12779885530471802
      ],
      "type": "VEC3"
    },
    {
      "bufferView": 2,
      "byteOffset": 132000,
      "componentType": 5126,
      "count": 3484,
      "max": [
        1.0,
        1.0,
        1.0
      ],
      "min": [
        -1.0,
        -1.0,
        -1.0
      ],
      "type": "VEC3"
    },
    {
      "bufferView": 3,
      "byteOffset": 60128,
      "componentType": 5126,
      "count": 3484,
      "max": [
        1.0,
        1.0,
        1.0,
        1.0
      ],
      "min": [
        -1.0,
        -1.0,
        -1.0,
        1.0
      ],
      "type": "VEC4"
    },
    {
      "bufferView": 1,
      "byteOffset": 30064,
      "componentType": 5126,
      "count": 3484,
      "max": [
        0.9999755620956421,
        0.9812932014465332
      ],
      "min": [
        2.441406286379788e-05,
        2.441406286379788e-05
      ],
      "type": "VEC2"
    },
    {
      "bufferView": 0,
      "byteOffset": 33384,
      "componentType": 5125,
      "count": 5844,
      "type": "SCALAR"
    },
    {
      "bufferView": 2,
      "byteOffset": 173808,
      "componentType": 5126,
      "count": 5736,
      "max": [
        4.090625286102295,
        1.947670340538025,
        3.285816192626953
      ],
      "min": [
        -1.9842467308044434,
        -1.4221785068511963,
        0.11802631616592407
      ],
      "type": "VEC3"
    },
    {
      "bufferView": 2,
      "byteOffset": 242640,
      "componentType": 5126,
      "count": 5736,
      "max": [
        1.0,
        1.0,
        1.0
      ],
      "min": [
        -1.0,
        -1.0,
        -1.0
      ],
      "type": "VEC3"
    },
    {
      "bufferView": 3,
      "byteOffset": 115872,
      "componentType": 5126,
      "count": 5736,
      "max": [
        1.0,
        1.0,
        1.0,
        1.0
      ],
      "min": [
        -1.0,
        -1.0,
        -1.0,
        -1.0
      ],
      "type": "VEC4"
    },
    {
      "bufferView": 1,
      "byteOffset": 57936,
      "componentType": 5126,
      "count": 5736,
      "max": [
        0.9999755620956421,
        0.9915562272071838
      ],
      "min": [
        2.441406286379788e-05,
        2.441406286379788e-05
      ],
      "type": "VEC2"
    },
    {
      "bufferView": 0,
      "byteOffset": 56760,
      "componentType": 5125,
      "count": 9840,
      "type": "SCALAR"
    },
    {
      "bufferView": 2,
      "byteOffset": 311472,
      "componentType": 5126,
      "count": 2376,
      "max": [
        3.574172019958496,
        2.180593490600586,
        3.0112645626068115
      ],
      "min": [
        -1.4831331968307495,
        -2.105959415435791,
        -0.28344130516052246
      ],
      "type": "VEC3"
    },
    {
      "bufferView": 2,
      "byteOffset": 339984,
      "componentType": 5126,
      "count": 2376,
      "max": [
        1.0,
        1.0,
        1.0
      ],
      "min": [
        -1.0,
        -1.0,
        -1.0
      ],
      "type": "VEC3"
    },
    {
      "bufferView": 3,
      "byteOffset": 207648,
      "componentType": 5126,
      "count": 2376,
      "max": [
        1.0,
        1.0,
        1.0,
        1.0
      ],
      "min": [
        -1.0,
        -1.0,
        -1.0,
        1.0
      ],
      "type": "VEC4"
    },
    {
      "bufferView": 1,
      "byteOffset": 103824,
      "componentType": 5126,
      "count": 2376,
      "max": [
        0.9999755620956421,
        0.8832120895385742
      ],
      "min": [
        2.441406286379788e-05,
        2.441406286379788e-05
      ],
      "type": "VEC2"
    },
    {
      "bufferView": 0,
      "byteOffset": 96120,
      "componentType": 5125,
      "count": 4668,
      "type": "SCALAR"
    },
    {
      "bufferView": 2,
      "byteOffset": 368496,
      "componentType": 5126,
      "count": 1770,
      "max": [
        4.056764125823975,
        2.7276270389556885,
        4.101555824279785
      ],
      "min": [
        -1.5550880432128906,
        -2.6772565841674805,
        -0.2834410071372986
      ],
      "type": "VEC3"
    },
    {
      "bufferView": 2,
      "byteOffset": 389736,
      "componentType": 5126,
      "count": 1770,
      "max": [
        1.0,
        1.0,
        1.0
      ],
      "min": [
        -1.0,
        -1.0,
        -1.0
      ],
      "type": "VEC3"
    },
    {
      "bufferView": 3,
      "byteOffset": 245664,
      "componentType": 5126,
      "count": 1770,
      "max": [
        1.0,
        1.0,
        1.0,
        1.0
      ],
      "min": [
        -1.0,
        -1.0,
        -1.0,
        1.0
      ],
      "type": "VEC4"
    },
    {
      "bufferView": 1,
      "byteOffset": 122832,
      "componentType": 5126,
      "count": 1770,
      "max": [
        0.9488233327865601,
        0.9999755620956421
      ],
      "min": [
        2.441406286379788e-05,
        2.441406286379788e-05
      ],
      "type": "VEC2"
    },
    {
      "bufferView": 0,
      "byteOffset": 114792,
      "componentType": 5125,
      "count": 3312,
      "type": "SCALAR"
    },
    {
      "bufferView": 2,
      "byteOffset": 410976,
      "componentType": 5126,
      "count": 320,
      "max": [
        1.6137046813964844,
        2.294436454772949,
        3.8668625354766846
      ],
      "min": [
        -1.6137046813964844,
        -1.8093318939208984,
        -2.384185791015625e-07
      ],
      "type": "VEC3"
    },
    {
      "bufferView": 2,
      "byteOffset": 414816,
      "componentType": 5126,
      "count": 320,
      "max": [
        1.0,
        1.0,
        1.0
      ],
      "min": [
        -1.0,
        -1.0,
        -1.0
      ],
      "type": "VEC3"
    },
    {
      "bufferView": 3,
      "byteOffset": 273984,
      "componentType": 5126,
      "count": 320,
      "max": [
        1.0,
        1.0,
        0.9882145524024963,
        1.0
      ],
      "min": [
        -1.0,
        -1.0,
        -1.0,
        -1.0
      ],
      "type": "VEC4"
    },
    {
      "bufferView": 1,
      "byteOffset": 136992,
      "componentType": 5126,
      "count": 320,
      "max": [
        0.9999755620956421,
        0.9934871792793274
      ],
      "min": [
        2.441406286379788e-05,
        2.441406286379788e-05
      ],
      "type": "VEC2"
    },
    {
      "bufferView": 0,
      "byteOffset": 128040,
      "componentType": 5125,
      "count": 666,
      "type": "SCALAR"
    }
  ],
  "asset": {
    "extras": {
      "author": "Sem (https://sketchfab.com/Sem-Hofstede)",
      "license": "CC-BY-4.0 (http://creativecommons.org/licenses/by/4.0/)",
      "source": "https://sketchfab.com/3d-models/stylized-medieval-house-free-b43fb5db5bf646949ed77948c8291694",
      "title": "Stylized Medieval House | FREE"
    },
    "generator": "Sketchfab-16.12.0",
    "version": "2.0"
  },
  "bufferViews": [
    {
      "buffer": 0,
      "byteLength": 130704,
      "name": "floatBufferViews",
      "target": 34963
    },
    {
      "buffer": 0,
      "byteLength": 139552,
      "byteOffset": 130704,
      "byteStride": 8,
      "name": "floatBufferViews",
      "target": 34962
    },
    {
      "buffer": 0,
      "byteLength": 418656,
      "byteOffset": 270256,
      "byteStride": 12,
      "name": "floatBufferViews",
      "target": 34962
    },
    {
      "buffer": 0,
      "byteLength": 279104,
      "byteOffset": 688912,
      "byteStride": 16,
      "name": "floatBufferViews",
      "target": 34962
    }
  ],
  "buffers": [
    {
      "byteLength": 968016,
      "uri": "scene.bin"
    }
  ],
  "images": [
    {
      "uri": "textures/01_Frame_baseColor.png"
    },
    {
      "uri": "textures/01_Frame_metallicRoughness.png"
    },
    {
      "uri": "textures/01_Frame_normal.png"
    },
    {
      "uri": "textures/05_Roof2_baseColor.png"
    },
    {
      "uri": "textures/05_Roof2_metallicRoughness.png"
    },
    {
      "uri": "textures/05_Roof2_normal.png"
    },
    {
      "uri": "textures/04_Roof1_baseColor.png"
    },
    {
      "uri": "textures/04_Roof1_metallicRoughness.png"
    },
    {
      "uri": "textures/04_Roof1_normal.png"
    },
    {
      "uri": "textures/03_Wood_baseColor.png"
    },
    {
      "uri": "textures/03_Wood_metallicRoughness.png"
    },
    {
      "uri": "textures/03_Wood_normal.png"
    },
    {
      "uri": "textures/02_Window_baseColor.png"
    },
    {
      "uri": "textures/02_Window_metallicRoughness.png"
    },
    {
      "uri": "textures/02_Window_normal.png"
    },
    {
      "uri": "textures/06_Front_baseColor.png"
    },
    {
      "uri": "textures/06_Front_metallicRoughness.png"
    },
    {
      "uri": "textures/06_Front_normal.png"
    },
    {
      "uri": "textures/07_Beams_baseColor.png"
    },
    {
      "uri": "textures/07_Beams_metallicRoughness.png"
    },
    {
      "uri": "textures/07_Beams_normal.png"
    },
    {
      "uri": "textures/08_Base_baseColor.png"
    },
    {
      "uri": "textures/08_Base_metallicRoughness.png"
    },
    {
      "uri": "textures/08_Base_normal.png"
    }
  ],
  "materials": [
    {
      "doubleSided": true,
      "name": "01_Frame",
      "normalTexture": {
        "index": 2
      },
      "pbrMetallicRoughness": {
        "baseColorTexture": {
          "index": 0
        },
        "metallicRoughnessTexture": {
          "index": 1
        }
      }
    },
    {
      "doubleSided": true,
      "name": "05_Roof2",
      "normalTexture": {
        "index": 5
      },
      "pbrMetallicRoughness": {
        "baseColorTexture": {
          "index": 3
        },
        "metallicRoughnessTexture": {
          "index": 4
        }
      }
    },
    {
      "doubleSided": true,
      "name": "04_Roof1",
      "normalTexture": {
        "index": 8
      },
      "pbrMetallicRoughness": {
        "baseColorTexture": {
          "index": 6
        },
        "metallicRoughnessTexture": {
          "index": 7
        }
      }
    },
    {
      "doubleSided": true,
      "name": "03_Wood",
      "normalTexture": {
        "index": 11
      },
      "pbrMetallicRoughness": {
        "baseColorTexture": {
          "index": 9
        },
        "metallicRoughnessTexture": {
          "index": 10
        }
      }
    },
    {
      "doubleSided": true,
      "name": "02_Window",
      "normalTexture": {
        "index": 14
      },
      "pbrMetallicRoughness": {
        "baseColorTexture": {
          "index": 12
        },
        "metallicRoughnessTexture": {
          "index": 13
        }
      }
    },
    {
      "doubleSided": true,
      "name": "06_Front",
      "normalTexture": {
        "index": 17
      },
      "pbrMetallicRoughness": {
        "baseColorTexture": {
          "index": 15
        },
        "metallicRoughnessTexture": {
          "index": 16
        }
      }
    },
    {
      "doubleSided": true,
      "name": "07_Beams",
      "normalTexture": {
        "index": 20
      },
      "pbrMetallicRoughness": {
        "baseColorTexture": {
          "index": 18
        },
        "metallicRoughnessTexture": {
          "index": 19
        }
      }
    },
    {
      "doubleSided": true,
      "name": "08_Base",
      "normalTexture": {
        "index": 23
      },
      "pbrMetallicRoughness": {
        "baseColorTexture": {
          "index": 21
        },
        "metallicRoughnessTexture": {
          "index": 22
        }
      }
    }
  ],
  "meshes": [
    {
      "name": "Cube.105_01_Frame_0",
      "primitives": [
        {
          "attributes": {
            "NORMAL": 1,
            "POSITION": 0,
            "TANGENT": 2,
            "TEXCOORD_0": 3
          },
          "indices": 4,
          "material": 0,
          "mode": 4
        }
      ]
    },
    {
      "name": "Cube.023_05_Roof2_0",
      "primitives": [
        {
          "attributes": {
            "NORMAL": 6,
            "POSITION": 5,
            "TANGENT": 7,
            "TEXCOORD_0": 8
          },
          "indices": 9,
          "material": 1,
          "mode": 4
        }
      ]
    },
    {
      "name": "Cube.035_04_Roof1_0",
      "primitives": [
        {
          "attributes": {
            "NORMAL": 11,
            "POSITION": 10,
            "TANGENT": 12,
            "TEXCOORD_0": 13
          },
          "indices": 14,
          "material": 2,
          "mode": 4
        }
      ]
    },
    {
      "name": "Cube.037_03_Wood_0",
      "primitives": [
        {
          "attributes": {
            "NORMAL": 16,
            "POSITION": 15,
            "TANGENT": 17,
            "TEXCOORD_0": 18
          },
          "indices": 19,
          "material": 3,
          "mode": 4
        }
      ]
    },
    {
      "name": "Cube.038_02_Window_0",
      "primitives": [
        {
          "attributes": {
            "NORMAL": 21,
            "POSITION": 20,
            "TANGENT": 22,
            "TEXCOORD_0": 23
          },
          "indices": 24,
          "material": 4,
          "mode": 4
        }
      ]
    },
    {
      "name": "Cube.075_06_Front_0",
      "primitives": [
        {
          "attributes": {
            "NORMAL": 26,
            "POSITION": 25,
            "TANGENT": 27,
            "TEXCOORD_0": 28
          },
          "indices": 29,
          "material": 5,
          "mode": 4
        }
      ]
    },
    {
      "name": "Cube.076_07_Beams_0",
      "primitives": [
        {
          "attributes": {
            "NORMAL": 31,
            "POSITION": 30,
            "TANGENT": 32,
            "TEXCOORD_0": 33
          },
          "indices": 34,
          "material": 6,
          "mode": 4
        }
      ]
    },
    {
      "name": "Cube.077_08_Base_0",
      "primitives": [
        {
          "attributes": {
            "NORMAL": 36,
            "POSITION": 35,
            "TANGENT": 37,
            "TEXCOORD_0": 38
          },
          "indices": 39,
          "material": 7,
          "mode": 4
        }
      ]
    }
  ],
  "nodes": [
    {
      "children": [
        1
      ],
      "matrix": [
        1.0,
        0.0,
        0.0,
        0.0,
        0.0,
        2.220446049250313e-16,
        -1.0,
        0.0,
        0.0,
        1.0,
        2.220446049250313e-16,
        0.0,
        0.0,
        0.0,
        0.0,
        1.0
      ],
      "name": "Sketchfab_model"
    },
    {
      "children": [
        2
      ],
      "matrix": [
        0.009999999776482582,
        0.0,
        0.0,
        0.0,
        0.0,
        0.0,
        0.009999999776482582,
        0.0,
        0.0,
        -0.009999999776482582,
        0.0,
        0.0,
        0.0,
        0.0,
        0.0,
        1.0
      ],
      "name": "e0df7f82ff5040f483eab66a44b9438a.fbx"
    },
    {
      "children": [
        3,
        5,
        7,
        9,
        11,
        13,
        15,
        17
      ],
      "name": "RootNode"
    },
    {
      "children": [
        4
      ],
      "matrix": [
        100.0,
        0.0,
        0.0,
        0.0,
        0.0,
        -1.629206793918314e-05,
        -99.99999999999868,
        0.0,
        0.0,
        99.99999999999868,
        -1.629206793918314e-05,
        0.0,
        0.0,
        0.0,
        0.0,
        1.0
      ],
      "name": "Cube.105"
    },
    {
      "mesh": 0,
      "name": "Cube.105_01_Frame_0"
    },
    {
      "children": [
        6
      ],
      "matrix": [
        100.0,
        0.0,
        0.0,
        0.0,
        0.0,
        -1.629206793918314e-05,
        -99.99999999999868,
        0.0,
        0.0,
        99.99999999999868,
        -1.629206793918314e-05,
        0.0,
        0.0,
        0.0,
        0.0,
        1.0
      ],
      "name": "Cube.023"
    },
    {
      "mesh": 1,
      "name": "Cube.023_05_Roof2_0"
    },
    {
      "children": [
        8
      ],
      "matrix": [
        100.0,
        0.0,
        0.0,
        0.0,
        0.0,
        -1.629206793918314e-05,
        -99.99999999999868,
        0.0,
        0.0,
        99.99999999999868,
        -1.629206793918314e-05,
        0.0,
        0.0,
        0.0,
        0.0,
        1.0
      ],
      "name": "Cube.035"
    },
    {
      "mesh": 2,
      "name": "Cube.035_04_Roof1_0"
    },
    {
      "children": [
        10
      ],
      "matrix": [
        100.0,
        0.0,
        0.0,
        0.0,
        0.0,
        -1.629206793918314e-05,
        -99.99999999999868,
        0.0,
        0.0,
        99.99999999999868,
        -1.629206793918314e-05,
        0.0,
        0.0,
        0.0,
        0.0,
        1.0
      ],
      "name": "Cube.037"
    },
    {
      "mesh": 3,
      "name": "Cube.037_03_Wood_0"
    },
    {
      "children": [
        12
      ],
      "matrix": [
        100.0,
        0.0,
        0.0,
        0.0,
        0.0,
        -1.629206793918314e-05,
        -99.99999999999868,
        0.0,
        0.0,
        99.99999999999868,
        -1.629206793918314e-05,
        0.0,
        0.0,
        0.0,
        0.0,
        1.0
      ],
      "name": "Cube.038"
    },
    {
      "mesh": 4,
      "name": "Cube.038_02_Window_0"
    },
    {
      "children": [
        14
      ],
      "matrix": [
        100.0,
        0.0,
        0.0,
        0.0,
        0.0,
        -1.629206793918314e-05,
        -99.99999999999868,
        0.0,
        0.0,
        99.99999999999868,
        -1.629206793918314e-05,
        0.0,
        0.0,
        0.0,
        0.0,
        1.0
      ],
      "name": "Cube.075"
    },
    {
      "mesh": 5,
      "name": "Cube.075_06_Front_0"
    },
    {
      "children": [
        16
      ],
      "matrix": [
        100.0,
        0.0,
        0.0,
        0.0,
        0.0,
        -1.629206793918314e-05,
        -99.99999999999868,
        0.0,
        0.0,
        99.99999999999868,
        -1.629206793918314e-05,
        0.0,
        0.0,
        0.0,
        0.0,
        1.0
      ],
      "name": "Cube.076"
    },
    {
      "mesh": 6,
      "name": "Cube.076_07_Beams_0"
    },
    {
      "children": [
        18
      ],
      "matrix": [
        100.0,
        0.0,
        0.0,
        0.0,
        0.0,
        -1.629206793918314e-05,
        -99.99999999999868,
        0.0,
        0.0,
        99.99999999999868,
        -1.629206793918314e-05,
        0.0,
        0.0,
        0.0,
        0.0,
        1.0
      ],
      "name": "Cube.077"
    },
    {
      "mesh": 7,
      "name": "Cube.077_08_Base_0"
    }
  ],
  "samplers": [
    {
      "magFilter": 9729,
      "minFilter": 9987,
      "wrapS": 10497,
      "wrapT": 10497
    }
  ],
  "scene": 0,
  "scenes": [
    {
      "name": "Sketchfab_Scene",
      "nodes": [
        0
      ]
    }
  ],
  "textures": [
    {
      "sampler": 0,
      "source": 0
    },
    {
      "sampler": 0,
      "source": 1
    },
    {
      "sampler": 0,
      "source": 2
    },
    {
      "sampler": 0,
      "source": 3
    },
    {
      "sampler": 0,
      "source": 4
    },
    {
      "sampler": 0,
      "source": 5
    },
    {
      "sampler": 0,
      "source": 6
    },
    {
      "sampler": 0,
      "source": 7
    },
    {
      "sampler": 0,
      "source": 8
    },
    {
      "sampler": 0,
      "source": 9
    },
    {
      "sampler": 0,
      "source": 10
    },
    {
      "sampler": 0,
      "source": 11
    },
    {
      "sampler": 0,
      "source": 12
    },
    {
      "sampler": 0,
      "source": 13
    },
    {
      "sampler": 0,
      "source": 14
    },
    {
      "sampler": 0,
      "source": 15
    },
    {
      "sampler": 0,
      "source": 16
    },
    {
      "sampler": 0,
      "source": 17
    },
    {
      "sampler": 0,
      "source": 18
    },
    {
      "sampler": 0,
      "source": 19
    },
    {
      "sampler": 0,
      "source": 20
    },
    {
      "sampler": 0,
      "source": 21
    },
    {
      "sampler": 0,
      "source": 22
    },
    {
      "sampler": 0,
      "source": 23
    }
  ]
}
